<?xml version="1.0" encoding="utf-8"?>
<!-- Generator: Adobe Illustrator 19.0.0, SVG Export Plug-In . SVG Version: 6.00 Build 0)  -->
<svg version="1.1" id="Layer_1" xmlns="http://www.w3.org/2000/svg" xmlns:xlink="http://www.w3.org/1999/xlink" x="0px" y="0px"
	 viewBox="131 -131 512 512" style="enable-background:new 131 -131 512 512;" xml:space="preserve">
<g id="XMLID_1_">
	<path id="XMLID_5_" d="M387-131c-141.5,0-256,114.5-256,256s114.5,256,256,256s256-114.5,256-256S528.5-131,387-131z M534.1,179.9
		c-7.4,25.1-20.5,48.4-40,66.1c-18.6,16.8-41,27.9-65.2,33.5c-27,6.5-54.9,6.5-81-0.9c-20.5-5.6-41-15.8-57.7-28.9
		c-17.7-14-32.6-32.6-42.8-53.1c-15.8-31.7-20.5-68-14-102.4c2.8-14,7.4-27,14-40C266,17.9,298.6-11,337.7-24.9
		C372.1-37,410.3-36.1,444.8-24c18.6,6.5,36.3,17.7,51.2,31.7c-4.7,5.6-10.2,10.2-15.8,15.8c-9.3,9.3-19.5,19.5-28.9,28.9
		c-9.3-9.3-21.4-15.8-34.4-20.5c-14.9-4.7-31.7-5.6-46.5-1.9c-17.7,3.7-34.4,13-47.5,26.1c-10.2,10.2-18.6,23.3-23.3,37.2
		c-6.5,19.5-6.5,41.9,0,61.4s19.5,37.2,36.3,48.4c10.2,7.4,22.3,13,35.4,14.9c12.1,2.8,25.1,1.9,38.2,0c12.1-1.9,24.2-6.5,35.4-14
		c16.8-11.2,28.9-28.9,31.7-49.3c-28.9,0-57.7,0-86.6,0c0-20.5,0-41,0-61.4c49.3,0,99.6,0,148.9,0
		C543.4,123.1,541.5,152,534.1,179.9z"/>
</g>
</svg>
